<?xml version="1.0" encoding="UTF-8"?>
<svg version="1.1" xmlns="http://www.w3.org/2000/svg" width="1563" height="1563">
<path d="M0 0 C1.25225372 -0.00701431 2.50450745 -0.01402863 3.79470825 -0.02125549 C7.81369964 -0.03866524 11.83254151 -0.04568918 15.8515625 -0.046875 C16.87783249 -0.04753778 16.87783249 -0.04753778 17.92483521 -0.04821396 C38.25630288 -0.05510313 58.32901257 0.16080934 78.4765625 3.203125 C79.66830078 3.37473145 80.86003906 3.54633789 82.08789062 3.72314453 C134.99457911 11.50067795 188.56229484 29.67231361 229.4765625 65.203125 C230.49492188 66.03972656 231.51328125 66.87632812 232.5625 67.73828125 C244.39259413 77.46040977 255.1446046 88.03242466 264.4765625 100.203125 C264.89615234 100.74098633 265.31574219 101.27884766 265.74804688 101.83300781 C290.5399714 133.73677637 304.57462442 171.14204933 311.2890625 210.703125 C311.599646 212.52614136 311.599646 212.52614136 311.91650391 214.38598633 C313.3139362 223.0619571 313.88660654 231.35378561 314.4765625 240.203125 C249.1365625 240.203125 183.7965625 240.203125 116.4765625 240.203125 C114.8265625 236.243125 113.1765625 232.283125 111.4765625 228.203125 C96.16081572 200.25911154 71.1774941 182.20576105 40.92944336 173.1640625 C31.23969025 170.39048946 21.45934633 168.54469479 11.4765625 167.203125 C10.49042969 167.07035156 9.50429688 166.93757812 8.48828125 166.80078125 C-30.59229061 162.67215354 -70.95781705 169.83789929 -106.5234375 186.203125 C-107.21244141 186.51475586 -107.90144531 186.82638672 -108.61132812 187.14746094 C-130.30911478 197.05297224 -149.3540121 211.79784648 -166.5234375 228.203125 C-167.39871094 229.03714844 -168.27398437 229.87117187 -169.17578125 230.73046875 C-175.11646142 236.52469148 -180.44617487 242.64252187 -185.5234375 249.203125 C-185.94737793 249.7506543 -186.37131836 250.29818359 -186.80810547 250.86230469 C-198.1320295 265.59954159 -207.71334088 281.34067781 -215.5234375 298.203125 C-215.87615723 298.95303711 -216.22887695 299.70294922 -216.59228516 300.47558594 C-241.97027504 354.94814826 -253.14014285 425.6006985 -236.5234375 484.203125 C-236.22695313 485.24984375 -235.93046875 486.2965625 -235.625 487.375 C-230.11333292 505.18192441 -220.82950685 522.25075875 -208.5234375 536.203125 C-207.75257813 537.11835937 -206.98171875 538.03359375 -206.1875 538.9765625 C-179.28904395 570.05341949 -136.03160698 583.37384497 -96.2578125 586.37402344 C-46.01786399 589.9354963 5.80250082 581.04044403 47.4765625 551.203125 C48.98476563 550.12998047 48.98476563 550.12998047 50.5234375 549.03515625 C67.00670242 536.97162687 81.92627027 523.3585281 94.4765625 507.203125 C95.28738281 506.18605469 96.09820313 505.16898438 96.93359375 504.12109375 C106.35916286 492.21157578 114.06012683 479.43201346 121.4765625 466.203125 C122.7965625 463.893125 124.1165625 461.583125 125.4765625 459.203125 C14.5965625 458.708125 14.5965625 458.708125 -98.5234375 458.203125 C-97.34284299 448.75836896 -96.15674872 439.41310484 -94.56811523 430.04541016 C-94.29210983 428.39349419 -94.29210983 428.39349419 -94.01052856 426.70820618 C-93.41268994 423.1356326 -92.81005251 419.56388963 -92.20703125 415.9921875 C-91.78610105 413.48639216 -91.36537392 410.98056271 -90.94483948 408.47470093 C-90.06866852 403.25848268 -89.19017988 398.04266015 -88.30981445 392.82714844 C-87.29240676 386.7995121 -86.27980703 380.77108219 -85.26961368 374.74223292 C-84.29331147 368.9164701 -83.31338879 363.09132064 -82.33189583 357.2664299 C-81.91589284 354.79534102 -81.50084472 352.32409119 -81.08675957 349.85268021 C-80.51074743 346.41769084 -79.93062638 342.98342088 -79.34936523 339.54931641 C-79.17843857 338.52501022 -79.0075119 337.50070404 -78.83140564 336.44535828 C-78.67305237 335.5149321 -78.5146991 334.58450592 -78.35154724 333.62588501 C-78.21495414 332.81520884 -78.07836103 332.00453266 -77.93762875 331.16929054 C-77.5234375 329.203125 -77.5234375 329.203125 -76.5234375 327.203125 C48.8765625 326.873125 174.2765625 326.543125 303.4765625 326.203125 C307.4365625 318.613125 311.3965625 311.023125 315.4765625 303.203125 C321.76264454 291.64484512 321.76264454 291.64484512 324.28515625 287.05078125 C327.84811534 280.54009042 331.3517785 273.99792702 334.8515625 267.453125 C336.12885102 265.06507462 337.40619815 262.6770556 338.68359375 260.2890625 C338.99992767 259.69764969 339.3162616 259.10623688 339.6421814 258.49690247 C344.65536151 249.12731839 349.70138371 239.77537495 354.74267578 230.42089844 C357.65526515 225.01567063 360.5658048 219.60933932 363.4765625 214.203125 C364.64321946 212.03645311 365.80988613 209.86978644 366.9765625 207.703125 C367.8428125 206.094375 367.8428125 206.094375 368.7265625 204.453125 C373.97656249 194.70312502 373.97656249 194.70312502 375.72631836 191.45361328 C376.89383765 189.28533991 378.06131807 187.11704562 379.22875977 184.94873047 C382.13206421 179.55647472 385.036027 174.16457565 387.94140625 168.7734375 C393.9670291 157.59075004 399.98119089 146.40206317 405.9765625 135.203125 C412.54595733 122.93195129 419.13934942 110.67384084 425.74267578 98.42089844 C428.65526515 93.01567063 431.5658048 87.60933932 434.4765625 82.203125 C435.64321946 80.03645311 436.80988613 77.86978644 437.9765625 75.703125 C438.5540625 74.630625 439.1315625 73.558125 439.7265625 72.453125 C441.4765625 69.203125 443.2265625 65.953125 444.9765625 62.703125 C445.5547876 61.62925537 446.1330127 60.55538574 446.72875977 59.44897461 C447.88802447 57.29610071 449.04736612 55.14326825 450.20678711 52.99047852 C452.9166031 47.95872589 455.62569403 42.92658751 458.3319397 37.89291382 C459.28555346 36.11926066 460.23941896 34.34574311 461.19335938 32.57226562 C462.38656667 30.35378392 463.57930724 28.13505109 464.77148438 25.91601562 C465.58649414 24.40104492 465.58649414 24.40104492 466.41796875 22.85546875 C467.12481812 21.54050415 467.12481812 21.54050415 467.84594727 20.19897461 C470.03012914 16.1860841 472.25775669 12.19697546 474.4765625 8.203125 C543.1165625 8.203125 611.7565625 8.203125 682.4765625 8.203125 C691.65377346 55.23633116 691.65377346 55.23633116 695.64453125 77.01953125 C696.11311656 79.56715798 696.58192652 82.1147434 697.05093384 84.66229248 C698.05912573 90.13991319 699.06589739 95.61779319 700.07168579 101.09585571 C701.7276842 110.11476469 703.38728464 119.13300928 705.04760742 128.15112305 C705.26508249 129.33235463 705.26508249 129.33235463 705.48695099 130.53744948 C706.23609417 134.60637863 706.9852977 138.67529666 707.73454094 142.74420738 C708.35292363 146.10250724 708.97120066 149.46082653 709.58938789 152.81916237 C717.21263097 194.2324172 724.8734104 235.63871913 732.53631502 277.0446505 C733.90518477 284.44123638 735.27393758 291.8378439 736.64260864 299.23446655 C736.83771929 300.28888941 737.03282995 301.34331226 737.23385304 302.42968732 C737.62908299 304.56560282 738.02431271 306.70151835 738.41954219 308.83743393 C741.01684731 322.87384095 743.61425788 336.91022845 746.21186829 350.94657898 C751.44923984 379.24706351 756.68585553 407.54768777 761.92160416 435.8484726 C762.91977296 441.24386517 763.91797456 446.63925167 764.91618526 452.0346365 C768.82773133 473.17683105 772.73877986 494.31911739 776.64830804 515.46168518 C778.34741779 524.65026618 780.04673472 533.83880886 781.74609375 543.02734375 C781.9302278 544.02299819 782.11436185 545.01865263 782.30407572 546.04447842 C787.28973869 573.00271775 792.28516066 599.9591238 797.29233146 626.91337657 C798.44738644 633.13153211 799.60166654 639.34983107 800.75537109 645.5682373 C800.91372916 646.42176985 801.07208724 647.2753024 801.23524404 648.15469956 C801.86328756 651.53990806 802.49129908 654.92512249 803.11919928 658.31035757 C804.90636823 667.94561714 806.69607196 677.58039583 808.49065536 687.21427733 C809.57941926 693.06026302 810.66507508 698.90682012 811.74817139 704.75385851 C812.36377404 708.07652344 812.98135582 711.39878821 813.60193443 714.72052956 C814.26711257 718.28193654 814.92685793 721.8443074 815.58520508 725.40698242 C815.77964266 726.44052542 815.97408024 727.47406841 816.17440987 728.53893089 C816.34802481 729.48471819 816.52163975 730.43050549 816.70051575 731.404953 C816.85156674 732.21723453 817.00261774 733.02951605 817.15824604 733.86641216 C817.4765625 736.203125 817.4765625 736.203125 817.4765625 741.203125 C755.1065625 741.203125 692.7365625 741.203125 628.4765625 741.203125 C626.22648499 732.20281497 626.22648499 732.20281497 625.51473999 727.78826904 C625.35212173 726.79018219 625.18950348 725.79209534 625.0219574 724.76376343 C624.85148392 723.69542267 624.68101044 722.62708191 624.50537109 721.52636719 C624.3197612 720.38070282 624.13415131 719.23503845 623.94291687 718.05465698 C623.33348221 714.28698757 622.72908443 710.51853064 622.125 706.75 C621.70208628 704.12539273 621.27896118 701.50082024 620.85562134 698.87628174 C619.97061314 693.38601523 619.08847229 687.89529375 618.20800781 682.40429688 C617.19063397 676.05972126 616.16850326 669.7159256 615.14388978 663.37251544 C614.1564321 657.25833914 613.17251329 651.14359828 612.19014359 645.0286026 C611.77240057 642.43046765 611.35374052 639.83247998 610.93415451 637.23464203 C610.34937542 633.61101119 609.76862406 629.98675756 609.18896484 626.36230469 C608.92718193 624.74764816 608.92718193 624.74764816 608.66011047 623.10037231 C608.42464256 621.62016098 608.42464256 621.62016098 608.18441772 620.11004639 C608.04690283 619.25395153 607.90938793 618.39785667 607.76770592 617.51581955 C607.4765625 615.203125 607.4765625 615.203125 607.4765625 611.203125 C472.8365625 611.698125 472.8365625 611.698125 335.4765625 612.203125 C324.56067046 633.24168858 324.56067046 633.24168858 313.70089722 654.30889893 C311.81990606 657.97211189 309.93712514 661.6344052 308.0546875 665.296875 C307.4818528 666.41154648 307.4818528 666.41154648 306.89744568 667.54873657 C302.21719876 676.65523317 297.52833512 685.75729168 292.83666992 694.85791016 C289.51394338 701.30369645 286.19398898 707.75086597 282.8830719 714.20272827 C281.29760473 717.29195329 279.71075836 720.38046887 278.12380981 723.46893311 C277.36308852 724.95038991 276.60305073 726.43219791 275.84371948 727.91436768 C274.79595848 729.959419 273.74589416 732.00327164 272.6953125 734.046875 C271.7971582 735.79774414 271.7971582 735.79774414 270.88085938 737.58398438 C269.4765625 740.203125 269.4765625 740.203125 268.4765625 741.203125 C266.06067277 741.30079885 263.67340866 741.33309178 261.25706482 741.32337952 C260.4925861 741.32423394 259.72810739 741.32508837 258.94046265 741.32596868 C256.35929232 741.32762579 253.7781859 741.32209837 251.19702148 741.31665039 C249.35453289 741.31636854 247.51204419 741.31652621 245.66955566 741.3170929 C240.65117013 741.31738096 235.63280829 741.31148275 230.61442828 741.30451894 C225.37601512 741.29828693 220.13760148 741.29768172 214.89918518 741.29649353 C204.97211759 741.29337976 195.04506094 741.28516576 185.11799818 741.27514404 C173.81952155 741.26398431 162.5210444 741.25847281 151.22256362 741.25344861 C127.9738905 741.24298318 104.72522711 741.22538287 81.4765625 741.203125 C82.21273403 737.12064868 83.40949354 734.09214764 85.3984375 730.43359375 C86.0061499 729.30791992 86.6138623 728.18224609 87.23999023 727.02246094 C87.90204856 725.81177653 88.56424221 724.60116611 89.2265625 723.390625 C89.90041883 722.14778491 90.57367082 720.90461697 91.24633789 719.66113281 C92.62889554 717.10789336 94.01519208 714.55674135 95.40478516 712.00732422 C97.39859161 708.3488428 99.38242996 704.68503986 101.36328125 701.01953125 C104.39530491 695.41093988 107.43341568 689.80568816 110.4765625 684.203125 C107.85205298 685.07796151 105.84859391 686.04391209 103.4609375 687.3984375 C21.07581796 733.55507373 -71.30220046 754.83155595 -224.5234375 732.203125 C-239.26916098 727.92015275 -253.5329603 722.51174171 -267.5234375 716.203125 C-268.31057129 715.85137207 -269.09770508 715.49961914 -269.90869141 715.13720703 C-287.57065893 707.19342742 -303.8169532 697.51245993 -319.5234375 686.203125 C-320.08482422 685.80158203 -320.64621094 685.40003906 -321.22460938 684.98632812 C-331.08775604 677.87018029 -339.80527757 669.65095439 -348.5234375 661.203125 C-349.09545898 660.65301758 -349.66748047 660.10291016 -350.25683594 659.53613281 C-405.12791964 606.63293018 -427.99831548 530.02406122 -429.48936462 455.47271729 C-430.44656969 390.39826646 -416.03214803 322.77674352 -389.54052734 263.50634766 C-388.605442 261.38882602 -387.70659673 259.26100506 -386.82421875 257.12109375 C-381.93251151 245.34783225 -375.80636713 234.28351477 -369.5234375 223.203125 C-368.99943359 222.27628906 -368.47542969 221.34945312 -367.93554688 220.39453125 C-358.74840919 204.24057522 -348.6076777 188.88958838 -337.13525391 174.26391602 C-335.7748571 172.52457802 -334.43470671 170.77387549 -333.109375 169.0078125 C-326.61754764 160.40556777 -319.68263994 152.25555295 -312.5234375 144.203125 C-312.06356445 143.68395508 -311.60369141 143.16478516 -311.12988281 142.62988281 C-305.3975056 136.1836143 -299.41942578 130.00366869 -293.3359375 123.890625 C-292.68262451 123.23263916 -292.02931152 122.57465332 -291.35620117 121.89672852 C-286.90843944 117.46353308 -282.28795909 113.29193978 -277.5234375 109.203125 C-276.40588872 108.22958123 -275.28868329 107.25564314 -274.171875 106.28125 C-253.16279726 88.0765586 -230.72236532 71.93262724 -206.5234375 58.203125 C-205.1619458 57.4287207 -205.1619458 57.4287207 -203.77294922 56.63867188 C-141.96106694 21.7416188 -71.34041403 0.26829872 0 0 Z M543.4765625 207.203125 C536.22020052 220.2009172 529.30402356 233.33693565 522.72607422 246.69042969 C519.0516029 254.13170125 515.24215376 261.4884312 511.36329651 268.82478333 C507.18680502 276.73073191 503.10274906 284.68250285 499.03335571 292.64398193 C496.86072995 296.89417142 494.68423597 301.1423793 492.5078125 305.390625 C492.07543777 306.23470917 491.64306305 307.07879333 491.19758606 307.94845581 C487.41267738 315.33433049 483.60610586 322.70881625 479.7890625 330.078125 C474.54801979 340.19704708 469.31885656 350.321942 464.1015625 360.453125 C463.74778534 361.14005432 463.39400818 361.82698364 463.0295105 362.534729 C460.51151423 367.42401572 457.99397848 372.31353948 455.4765625 377.203125 C452.6018835 382.78662367 449.72699933 388.37001656 446.8515625 393.953125 C446.49789612 394.63983276 446.14422974 395.32654053 445.77984619 396.03405762 C440.85511108 405.59544279 435.91997305 415.15138357 430.9765625 424.703125 C429.45772504 427.63935242 427.93896322 430.5756189 426.42041016 433.51199341 C424.6772721 436.88245443 422.93332233 440.252493 421.18847656 443.62207031 C419.20950037 447.4441957 417.2328471 451.2675153 415.25756836 455.09155273 C414.49190599 456.57291133 413.7254772 458.05387407 412.95825195 459.53442383 C411.89203057 461.59222876 410.82851662 463.65141119 409.765625 465.7109375 C409.4465921 466.32514557 409.1275592 466.93935364 408.79885864 467.57217407 C407.4981634 470.0983651 406.3772462 472.5010739 405.4765625 475.203125 C465.2065625 475.203125 524.9365625 475.203125 586.4765625 475.203125 C583.56526803 455.40632258 580.65014754 435.62269725 577.51245117 415.86279297 C577.14702812 413.55241352 576.78176881 411.24200817 576.41665649 408.93157959 C575.44548395 402.78890029 574.47208531 396.64657579 573.49821639 390.50432348 C572.47323822 384.03712254 571.45040495 377.56958234 570.42732239 371.1020813 C568.71655244 360.2887218 567.00438789 349.47558379 565.29125977 338.66259766 C563.52996205 327.54554952 561.76946706 316.42837473 560.01000977 305.31103516 C559.90080455 304.62101079 559.79159933 303.93098642 559.67908486 303.22005223 C559.13101463 299.75698314 558.58295974 296.29391163 558.03491247 292.83083892 C553.51783878 264.28789122 548.99807586 235.74536974 544.4765625 207.203125 C544.1465625 207.203125 543.8165625 207.203125 543.4765625 207.203125 Z " fill="#FEBC59" transform="translate(572.5234375,402.796875)"/>
<path d="M0 0 C68.64 0 137.28 0 208 0 C217.17721096 47.03320616 217.17721096 47.03320616 221.16796875 68.81640625 C221.63655406 71.36403298 222.10536402 73.9116184 222.57437134 76.45916748 C223.58256323 81.93678819 224.58933489 87.41466819 225.59512329 92.89273071 C227.2511217 101.91163969 228.91072214 110.92988428 230.57104492 119.94799805 C230.7160283 120.73548577 230.86101168 121.52297349 231.01038849 122.33432448 C231.75953167 126.40325363 232.5087352 130.47217166 233.25797844 134.54108238 C233.87636113 137.89938224 234.49463816 141.25770153 235.11282539 144.61603737 C242.73606847 186.0292922 250.3968479 227.43559413 258.05975252 268.8415255 C259.42862227 276.23811138 260.79737508 283.6347189 262.16604614 291.03134155 C262.36115679 292.08576441 262.55626745 293.14018726 262.75729054 294.22656232 C263.15252049 296.36247782 263.54775021 298.49839335 263.94297969 300.63430893 C266.54028481 314.67071595 269.13769538 328.70710345 271.73530579 342.74345398 C276.97267734 371.04393851 282.20929303 399.34456277 287.44504166 427.6453476 C288.44321046 433.04074017 289.44141206 438.43612667 290.43962276 443.8315115 C294.35116883 464.97370605 298.26221736 486.11599239 302.17174554 507.25856018 C303.87085529 516.44714118 305.57017222 525.63568386 307.26953125 534.82421875 C307.4536653 535.81987319 307.63779935 536.81552763 307.82751322 537.84135342 C312.81317619 564.79959275 317.80859816 591.7559988 322.81576896 618.71025157 C323.97082394 624.92840711 325.12510404 631.14670607 326.27880859 637.3651123 C326.43716666 638.21864485 326.59552474 639.0721774 326.75868154 639.95157456 C327.38672506 643.33678306 328.01473658 646.72199749 328.64263678 650.10723257 C330.42980573 659.74249214 332.21950946 669.37727083 334.01409286 679.01115233 C335.10285676 684.85713802 336.18851258 690.70369512 337.27160889 696.55073351 C337.88721154 699.87339844 338.50479332 703.19566321 339.12537193 706.51740456 C339.79055007 710.07881154 340.45029543 713.6411824 341.10864258 717.20385742 C341.30308016 718.23740042 341.49751774 719.27094341 341.69784737 720.33580589 C341.87146231 721.28159319 342.04507725 722.22738049 342.22395325 723.201828 C342.37500424 724.01410953 342.52605524 724.82639105 342.68168354 725.66328716 C343 728 343 728 343 733 C280.63 733 218.26 733 154 733 C151.74992249 723.99968997 151.74992249 723.99968997 151.03817749 719.58514404 C150.87555923 718.58705719 150.71294098 717.58897034 150.5453949 716.56063843 C150.28968468 714.95812729 150.28968468 714.95812729 150.02880859 713.32324219 C149.8431987 712.17757782 149.65758881 711.03191345 149.46635437 709.85153198 C148.85691971 706.08386257 148.25252193 702.31540564 147.6484375 698.546875 C147.22552378 695.92226773 146.80239868 693.29769524 146.37905884 690.67315674 C145.49405064 685.18289023 144.61190979 679.69216875 143.73144531 674.20117188 C142.71407147 667.85659626 141.69194076 661.5128006 140.66732728 655.16939044 C139.6798696 649.05521414 138.69595079 642.94047328 137.71358109 636.8254776 C137.29583807 634.22734265 136.87717802 631.62935498 136.45759201 629.03151703 C135.87281292 625.40788619 135.29206156 621.78363256 134.71240234 618.15917969 C134.45061943 616.54452316 134.45061943 616.54452316 134.18354797 614.89724731 C133.94808006 613.41703598 133.94808006 613.41703598 133.70785522 611.90692139 C133.57034033 611.05082653 133.43282543 610.19473167 133.29114342 609.31269455 C133 607 133 607 133 603 C-1.64 603.495 -1.64 603.495 -139 604 C-149.91589204 625.03856358 -149.91589204 625.03856358 -160.77566528 646.10577393 C-162.65665644 649.76898689 -164.53943736 653.4312802 -166.421875 657.09375 C-166.8037648 657.83686432 -167.1856546 658.57997864 -167.57911682 659.34561157 C-172.25936374 668.45210817 -176.94822738 677.55416668 -181.63989258 686.65478516 C-184.96261912 693.10057145 -188.28257352 699.54774097 -191.5934906 705.99960327 C-193.17895777 709.08882829 -194.76580414 712.17734387 -196.35275269 715.26580811 C-197.11347398 716.74726491 -197.87351177 718.22907291 -198.63284302 719.71124268 C-199.68060402 721.756294 -200.73066834 723.80014664 -201.78125 725.84375 C-202.38001953 727.01099609 -202.97878906 728.17824219 -203.59570312 729.38085938 C-205 732 -205 732 -206 733 C-208.41588973 733.09767385 -210.80315384 733.12996678 -213.21949768 733.12025452 C-213.9839764 733.12110894 -214.74845511 733.12196337 -215.53609985 733.12284368 C-218.11727018 733.12450079 -220.6983766 733.11897337 -223.27954102 733.11352539 C-225.12202961 733.11324354 -226.96451831 733.11340121 -228.80700684 733.1139679 C-233.82539237 733.11425596 -238.84375421 733.10835775 -243.86213422 733.10139394 C-249.10054738 733.09516193 -254.33896102 733.09455672 -259.57737732 733.09336853 C-269.50444491 733.09025476 -279.43150156 733.08204076 -289.35856432 733.07201904 C-300.65704095 733.06085931 -311.9555181 733.05534781 -323.25399888 733.05032361 C-346.502672 733.03985818 -369.75133539 733.02225787 -393 733 C-392.26750182 728.94401682 -391.09088313 725.9346881 -389.11328125 722.30078125 C-388.21005127 720.62870605 -388.21005127 720.62870605 -387.28857422 718.92285156 C-386.63003702 717.71931665 -385.97134186 716.51586816 -385.3125 715.3125 C-384.63757075 714.06901733 -383.9632627 712.82519731 -383.28955078 711.58105469 C-381.89492449 709.00707417 -380.49702787 706.43490707 -379.09716797 703.86376953 C-377.0700361 700.13558568 -375.06527567 696.39573881 -373.06640625 692.65234375 C-372.44531982 691.49114014 -371.8242334 690.32993652 -371.18432617 689.13354492 C-370.00738288 686.93259268 -368.83169635 684.73096778 -367.6574707 682.52856445 C-365.01423848 677.60424611 -362.28883412 672.80272204 -359.28271484 668.09277344 C-356.52607143 663.59525777 -354.10639052 658.9029593 -351.625 654.25 C-350.69713352 652.51850847 -349.76926647 650.78701725 -348.84136963 649.05554199 C-347.87400067 647.24917063 -346.90797288 645.44208845 -345.94238281 643.63476562 C-343.42303757 638.91923805 -340.89735241 634.20710999 -338.37231445 629.49462891 C-337.11791937 627.15333131 -335.86378517 624.81189638 -334.61010742 622.47021484 C-328.6696789 611.37618987 -322.70404207 600.29582193 -316.73388672 589.21777344 C-313.82129735 583.81254563 -310.9107577 578.40621432 -308 573 C-306.83334304 570.83332811 -305.66667637 568.66666144 -304.5 566.5 C-303.63375 564.89125 -303.63375 564.89125 -302.75 563.25 C-199.5 371.5 -199.5 371.5 -197.74853516 368.24755859 C-196.58644046 366.08919728 -195.42465465 363.93066963 -194.26318359 361.77197266 C-191.27912678 356.22680281 -188.28912793 350.68496475 -185.2890625 345.1484375 C-177.96311532 331.66860961 -177.96311532 331.66860961 -171 318 C-165.91933396 307.64517139 -160.3408109 297.55038073 -154.84667969 287.41113281 C-151.88803197 281.94600511 -148.94456033 276.47272654 -146 271 C-144.83341104 268.83329149 -143.66674425 266.66662489 -142.5 264.5 C-141.9225 263.4275 -141.345 262.355 -140.75 261.25 C-93.49999999 173.49999998 -93.49999999 173.49999998 -91.75024414 170.25048828 C-90.58272485 168.08221491 -89.41524443 165.91392062 -88.24780273 163.74560547 C-85.34449829 158.35334972 -82.4405355 152.96145065 -79.53515625 147.5703125 C-73.5095334 136.38762504 -67.49537161 125.19893817 -61.5 114 C-54.93060517 101.72882629 -48.33721308 89.47071584 -41.73388672 77.21777344 C-39.40555803 72.89682552 -37.07857344 68.57515452 -34.75170898 64.25341797 C-33.58597247 62.08831626 -32.42012002 59.92327696 -31.25415039 57.75830078 C-28.31081314 52.29298478 -25.36892271 46.82689828 -22.4296875 41.359375 C-21.83414062 40.25207031 -21.23859375 39.14476562 -20.625 38.00390625 C-19.52291127 35.95471001 -18.42128317 33.9052659 -17.3203125 31.85546875 C-11.59400565 21.21077458 -5.78835332 10.6119811 0 0 Z M69 199 C61.74363802 211.9977922 54.82746106 225.13381065 48.24951172 238.48730469 C44.5750404 245.92857625 40.76559126 253.2853062 36.88673401 260.62165833 C32.71024252 268.52760691 28.62618656 276.47937785 24.55679321 284.44085693 C22.38416745 288.69104642 20.20767347 292.9392543 18.03125 297.1875 C17.59887527 298.03158417 17.16650055 298.87566833 16.72102356 299.74533081 C12.93611488 307.13120549 9.12954336 314.50569125 5.3125 321.875 C0.07145729 331.99392208 -5.15770594 342.118817 -10.375 352.25 C-10.72877716 352.93692932 -11.08255432 353.62385864 -11.447052 354.331604 C-13.96504827 359.22089072 -16.48258402 364.11041448 -19 369 C-21.874679 374.58349867 -24.74956317 380.16689156 -27.625 385.75 C-27.97866638 386.43670776 -28.33233276 387.12341553 -28.69671631 387.83093262 C-33.62145142 397.39231779 -38.55658945 406.94825857 -43.5 416.5 C-45.01883746 419.43622742 -46.53759928 422.3724939 -48.05615234 425.30886841 C-49.7992904 428.67932943 -51.54324017 432.049368 -53.28808594 435.41894531 C-55.26706213 439.2410707 -57.2437154 443.0643903 -59.21899414 446.88842773 C-59.98465651 448.36978633 -60.7510853 449.85074907 -61.51831055 451.33129883 C-62.58453193 453.38910376 -63.64804588 455.44828619 -64.7109375 457.5078125 C-65.0299704 458.12202057 -65.3490033 458.73622864 -65.67770386 459.36904907 C-66.9783991 461.8952401 -68.0993163 464.2979489 -69 467 C-9.27 467 50.46 467 112 467 C109.08870553 447.20319758 106.17358504 427.41957225 103.03588867 407.65966797 C102.67046562 405.34928852 102.30520631 403.03888317 101.94009399 400.72845459 C100.96892145 394.58577529 99.99552281 388.44345079 99.02165389 382.30119848 C97.99667572 375.83399754 96.97384245 369.36645734 95.95075989 362.8989563 C94.23998994 352.0855968 92.52782539 341.27245879 90.81469727 330.45947266 C89.05339955 319.34242452 87.29290456 308.22524973 85.53344727 297.10791016 C85.42424205 296.41788579 85.31503683 295.72786142 85.20252236 295.01692723 C84.65445213 291.55385814 84.10639724 288.09078663 83.55834997 284.62771392 C79.04127628 256.08476622 74.52151336 227.54224474 70 199 C69.67 199 69.34 199 69 199 Z " fill="#004AAC" transform="translate(1047,411)"/>
</svg>
